# xmcd
#
# Track frame offsets:
#	150
#	15158
#	28388
#	42708
#	55278
#	69965
#	88895
#	103255
#	118408
#	131795
#	146068
#	159530
#	174345
#	190258
#	206038
#	218345
#	231513
#	247433
#	261540
#	276770
#	292025
#	307233
#
# Disc length: 4320
#
# Revision: 2
# Processed by: cddbd v1.5.1PL0 Copyright (c) Steve Scherf et al.
# Submitted via: ExactAudioCopy v0.90b3
# Normalized: r0:DSETVAR1,TDELIM( - ),TSWAP
#
DISCID=6c10de16
DTITLE=Various Artist - Top Hits USA RC25
DYEAR=1994
DGENRE=Country
TTITLE0=Alan Jackson - Summertime Blues
TTITLE1=John Michael Montgomery - Be My baby Tonight
TTITLE2=Diamond Rio - Love A Little Stronger
TTITLE3=Trisha Yearwood - XXX's And OOO's
TTITLE4=Randy Travis - Whisper My Name
TTITLE5=Garth Brooks - One Night A Day
TTITLE6=Little Texas - Stop On A Dime
TTITLE7=Wynonna - Girls With Guitars
TTITLE8=Vince Gill - WhatThe Cowgirls Do
TTITLE9=Clint Black - Half The Man
TTITLE10=Tracy Byrd - Lifestyles Of The Not So Rich And Famous
TTITLE11=Sammy Kershaw - National Working Woman's Holiday
TTITLE12=Tanya Tucker - Hangin' In
TTITLE13=George Strait - The Man In Love With You
TTITLE14=Tracy Lawrence - Renegades
TTITLE15=Lee Roy Parnell w Brooks and Dunn - Take These Chains From My Heart
TTITLE16=Martina McBride - Independance Day
TTITLE17=David Ball - Thinking' Problem
TTITLE18=Rick Trevino - She Can't Say I Didn't Cry
TTITLE19=Clay Walker - Dreaming With My Eyes Open
TTITLE20=Lari White - That's My Baby
TTITLE21=John Anderson - I Wish I Could Have Been There
EXTD=
EXTT0=
EXTT1=
EXTT2=
EXTT3=
EXTT4=
EXTT5=
EXTT6=
EXTT7=
EXTT8=
EXTT9=
EXTT10=
EXTT11=
EXTT12=
EXTT13=
EXTT14=
EXTT15=
EXTT16=
EXTT17=
EXTT18=
EXTT19=
EXTT20=
EXTT21=
PLAYORDER=
